<svg width="48" height="47" viewBox="0 0 48 47" fill="none" xmlns="http://www.w3.org/2000/svg">
<path d="M45.457 14.4839L2.2041 44.1978L33.7588 1.84912L45.457 14.4839Z" fill="#EDB036" stroke="black"/>
<path d="M34.5017 0.999023C35.561 0.356091 37.08 0.320127 38.7791 0.974609C40.4691 1.62566 42.2748 2.94118 43.8269 4.88086C45.5527 7.03775 46.5619 8.9648 46.8835 10.5576C47.2004 12.1271 46.8494 13.3386 45.8855 14.1953C44.8983 15.0728 43.6758 15.39 42.1033 14.8691C40.4887 14.3343 38.4969 12.9091 36.0896 10.2344C33.8754 7.77413 32.9681 5.75275 32.863 4.22461C32.7606 2.73386 33.4157 1.65811 34.5017 0.999023Z" fill="#73BEBE" stroke="black"/>
<path d="M25.4122 12.3191C25.3617 17.2667 31.5101 23.0251 35.2175 22.0687" stroke="black"/>
</svg>
